<svg id="Capa_1" data-name="Capa 1" xmlns="http://www.w3.org/2000/svg" xmlns:xlink="http://www.w3.org/1999/xlink" viewBox="0 0 469.42 314.16"><defs><style>.cls-1{fill:url(#linear-gradient);}</style><linearGradient id="linear-gradient" x1="160.18" y1="322.36" x2="338.94" y2="12.74" gradientUnits="userSpaceOnUse"><stop offset="0.29" stop-color="#fff"/><stop offset="0.57" stop-color="#f5f5f5"/><stop offset="1" stop-color="#ddd"/></linearGradient></defs><path class="cls-1" d="M432,122.77A65.42,65.42,0,0,0,368.09,43a67.43,67.43,0,0,0-7.14.4,65.44,65.44,0,0,0-121.2-5A85.35,85.35,0,0,0,136.57,82.33,56.85,56.85,0,0,0,52.4,145.9c-.28,0-.54,0-.82,0a45.55,45.55,0,1,0,8,90.34,61.15,61.15,0,0,0,112.8,24.52,74.11,74.11,0,0,0,130.62.19,45.44,45.44,0,0,0,69.4-28.42A62.64,62.64,0,1,0,432,122.77Z"/></svg>